/vscmnt/brussel_pixiu_data/_data_brussel/112/vsc11236/PredSimResults/SUBJ10opt3D/weighted-LRposFixed/expIG/worker_05.mot
version=1
nRows=4
nColumns=50
inDegrees=yes
endheader
                time	         pelvis_tilt	         pelvis_list	     pelvis_rotation	           pelvis_tx	           pelvis_ty	           pelvis_tz	       hip_flexion_r	     hip_adduction_r	      hip_rotation_r	        knee_angle_r	       ankle_angle_r	         mtp_angle_r	       hip_flexion_l	     hip_adduction_l	      hip_rotation_l	        knee_angle_l	       ankle_angle_l	         mtp_angle_l	    lumbar_extension	      lumbar_bending	     lumbar_rotation	 ercspn_r/activation	 intobl_r/activation	 extobl_r/activation	    abd_r/activation	    add_r/activation	hamstrings_r/activation	bifemsh_r/activation	glut_max_r/activation	iliopsoas_r/activation	rect_fem_r/activation	  vasti_r/activation	gastroc_r/activation	 soleus_r/activation	tib_ant_r/activation	 ercspn_l/activation	 intobl_l/activation	 extobl_l/activation	    abd_l/activation	    add_l/activation	hamstrings_l/activation	bifemsh_l/activation	glut_max_l/activation	iliopsoas_l/activation	rect_fem_l/activation	  vasti_l/activation	gastroc_l/activation	 soleus_l/activation	tib_ant_l/activation	
          0.00000000	         -5.06952517	         -1.06102768	          6.55558689	          0.00000000	          0.82290685	         -0.01418992	         30.65207643	         -1.49695033	         -5.96674249	         -4.49861818	          3.14965231	          0.25821537	        -13.94242308	         -0.40274187	          0.34305729	         -5.76156710	          9.28922474	         26.35456252	         -6.18177191	         -0.80195030	         -7.00561214	          0.12577626	          0.16128081	          0.00999999	          0.00999999	          0.13970763	          0.14546126	          0.19704994	          0.02853926	          0.12892980	          0.00999999	          0.00999999	          0.01386350	          0.00999999	          0.28008703	          0.04962957	          0.00999999	          0.00999999	          0.07454532	          0.00999999	          0.01254736	          0.27420022	          0.02991338	          0.55912802	          0.00999999	          0.00999999	          0.36208795	          0.28378553	          0.02527653	
          0.01202151	         -5.11789232	         -1.03493716	          6.74091263	          0.01560749	          0.82115076	         -0.01371644	         30.89760402	         -1.36823126	         -5.83269171	         -6.53504177	          2.80603897	          0.25918431	        -14.11439206	         -0.54186558	          0.04628687	         -7.32524438	          8.78850283	         28.05322690	         -5.93627796	         -0.28164814	         -7.40301973	          0.10954050	          0.13436053	          0.00999999	          0.00999999	          0.25513330	          0.12267927	          0.16415924	          0.06773775	          0.10740941	          0.00999999	          0.00999999	          0.01670018	          0.01246521	          0.30235853	          0.10096776	          0.00999999	          0.00999999	          0.06210255	          0.04515306	          0.01737253	          0.22843193	          0.02492037	          0.52780291	          0.00999999	          0.00999999	          0.33352910	          0.27715746	          0.02105748	
          0.02404302	         -5.15304555	         -1.03625747	          6.90066700	          0.03166999	          0.81961143	         -0.01317909	         30.92874742	         -1.25399594	         -5.56436837	         -8.48564525	          2.42044053	          0.24422665	        -14.14777027	         -0.72391389	         -0.26919916	         -9.19601094	          8.13806194	         29.79025525	         -5.65127693	          0.27519320	         -7.77340037	          0.09125649	          0.11193367	          0.00999999	          0.00999999	          0.21254758	          0.10244984	          0.13675851	          0.12003868	          0.08948111	          0.00999999	          0.00999999	          0.01391266	          0.01038457	          0.37334050	          0.11808411	          0.00999999	          0.00999999	          0.05173667	          0.07677604	          0.01447280	          0.19030309	          0.02076077	          0.44433373	          0.00999999	          0.00999999	          0.29608477	          0.26480144	          0.01754266	
          0.03606453	         -5.17714554	         -1.05386325	          7.02530024	          0.04799629	          0.81840333	         -0.01250290	         30.75960916	         -1.12567801	         -5.34483417	        -10.10862640	          1.93259403	          0.23424309	        -13.99591029	         -0.93940694	         -0.61356619	        -11.41775277	          7.29055817	         31.52301806	         -5.34890109	          0.84025232	         -8.11002817	          0.10308288	          0.09325020	          0.00999999	          0.04618698	          0.18909132	          0.08946226	          0.11393139	          0.13855289	          0.07454532	          0.00999999	          0.00999999	          0.01159042	          0.00999999	          0.43312906	          0.13066751	          0.00999999	          0.00999999	          0.04310101	          0.06420338	          0.01656144	          0.15853854	          0.01729548	          0.37016752	          0.00999999	          0.00999999	          0.24666361	          0.24712924	          0.01461452	
